<svg width="85" height="48" viewBox="0 0 85 48" fill="none" xmlns="http://www.w3.org/2000/svg">
<g clip-path="url(#clip0_1786_10433)">
<path d="M8.92771 26.2258L0.425048 38.1113C0.148623 38.4977 0 38.9609 0 39.436V43.2591C0 44.5165 1.01935 45.5359 2.27679 45.5359H82.7232C83.9807 45.5359 85 44.5165 85 43.2591V12.5579L78.3923 18.0999C77.4687 18.8745 76.1014 18.795 75.2738 17.9186L69.1379 11.4208C68.3127 10.5469 66.9503 10.465 66.0263 11.2338L57.1898 18.5863C56.5312 19.1342 55.6209 19.2661 54.8339 18.9277L46.2163 15.2211C45.6844 14.9924 45.0853 14.9748 44.541 15.1721L39.2168 17.1016C38.4415 17.3826 37.5748 17.2224 36.9512 16.6828L34.2736 14.3657C33.1908 13.4287 31.522 13.712 30.8092 14.954L23.6193 27.4807C23.0808 28.4188 21.9567 28.8485 20.9298 28.509L11.4943 25.3889C10.5478 25.0759 9.50774 25.415 8.92771 26.2258Z" fill="url(#paint0_linear_1786_10433)"/>
<path d="M0 38.7055L8.61794 26.6588C9.38221 25.5905 10.7526 25.1436 11.9997 25.556L20.3694 28.3236C21.7225 28.7711 23.2036 28.2048 23.9131 26.9687L30.3723 15.7151C31.3116 14.0787 33.5104 13.7053 34.9373 14.94L36.6304 16.4051C37.4521 17.1162 38.5941 17.3273 39.6157 16.9571L44.2718 15.2697C44.9891 15.0097 45.7785 15.0328 46.4793 15.3343L54.4265 18.7524C55.4635 19.1984 56.663 19.0246 57.5307 18.3026L65.5042 11.6682C66.7217 10.6552 68.5168 10.7631 69.6042 11.9146L74.8057 17.4229C75.8961 18.5777 77.6977 18.6824 78.9147 17.6617L85 12.5579" stroke="#F97066" stroke-width="3" stroke-linecap="round"/>
</g>
<defs>
<linearGradient id="paint0_linear_1786_10433" x1="42.5" y1="9.86621" x2="42.5" y2="45.5359" gradientUnits="userSpaceOnUse">
<stop stop-color="#FF9891"/>
<stop offset="1" stop-color="#F97066" stop-opacity="0"/>
</linearGradient>
<clipPath id="clip0_1786_10433">
<rect width="85" height="48" fill="white"/>
</clipPath>
</defs>
</svg>
