<svg width="85" height="48" viewBox="0 0 85 48" fill="none" xmlns="http://www.w3.org/2000/svg">
<g clip-path="url(#clip0_1786_10445)">
<path d="M8.92771 26.2258L0.425048 38.1113C0.148623 38.4977 0 38.9609 0 39.436V43.2591C0 44.5165 1.01935 45.5359 2.27679 45.5359H82.7232C83.9807 45.5359 85 44.5165 85 43.2591V12.5579L78.3923 18.0999C77.4687 18.8745 76.1014 18.795 75.2738 17.9186L69.1379 11.4208C68.3127 10.5469 66.9503 10.465 66.0263 11.2338L57.1898 18.5863C56.5312 19.1342 55.6209 19.2661 54.8339 18.9277L46.2163 15.2211C45.6844 14.9924 45.0853 14.9748 44.541 15.1721L39.2168 17.1016C38.4415 17.3826 37.5748 17.2224 36.9512 16.6828L34.2736 14.3657C33.1908 13.4287 31.522 13.712 30.8092 14.954L23.6193 27.4807C23.0808 28.4188 21.9567 28.8485 20.9298 28.509L11.4943 25.3889C10.5478 25.0759 9.50774 25.415 8.92771 26.2258Z" fill="url(#paint0_linear_1786_10445)"/>
<path d="M0 38.7055L8.92771 26.2258C9.50774 25.415 10.5478 25.0759 11.4943 25.3889L20.9298 28.509C21.9567 28.8485 23.0808 28.4188 23.6193 27.4807L30.8092 14.954C31.522 13.712 33.1908 13.4287 34.2736 14.3657L36.9512 16.6828C37.5748 17.2224 38.4415 17.3826 39.2168 17.1016L44.541 15.1721C45.0853 14.9748 45.6844 14.9924 46.2163 15.2211L54.8339 18.9277C55.6209 19.2661 56.5312 19.1342 57.1898 18.5863L66.0263 11.2338C66.9502 10.465 68.3127 10.5469 69.1379 11.4208L75.2738 17.9186C76.1014 18.795 77.4687 18.8745 78.3923 18.0999L85 12.5579" stroke="#12B76A" stroke-width="2.27679" stroke-linecap="round"/>
</g>
<defs>
<linearGradient id="paint0_linear_1786_10445" x1="42.5" y1="9.86621" x2="42.5" y2="45.5359" gradientUnits="userSpaceOnUse">
<stop stop-color="#A6F4C5"/>
<stop offset="1" stop-color="#A6F4C5" stop-opacity="0"/>
</linearGradient>
<clipPath id="clip0_1786_10445">
<rect width="85" height="48" fill="white"/>
</clipPath>
</defs>
</svg>
