<svg width="204" height="160" viewBox="0 0 204 160" fill="none" xmlns="http://www.w3.org/2000/svg">
<rect x="1.25" y="1.25" width="157.5" height="157.5" rx="10.75" stroke="#EAECF0" stroke-width="2.5"/>
<path d="M102.531 39H113.217C117.636 39 121.217 42.5817 121.217 47V57.6861" stroke="#577B14" stroke-width="5" stroke-linecap="round" stroke-linejoin="round"/>
<path d="M57.6861 121.217H47C42.5817 121.217 39 117.636 39 113.217V102.531" stroke="#577B14" stroke-width="5" stroke-linecap="round" stroke-linejoin="round"/>
<path d="M121.217 102.531V113.217C121.217 117.636 117.636 121.217 113.217 121.217H102.531" stroke="#577B14" stroke-width="5" stroke-linecap="round" stroke-linejoin="round"/>
<path d="M39 57.6861V47C39 42.5817 42.5817 39 47 39H57.6861" stroke="#577B14" stroke-width="5" stroke-linecap="round" stroke-linejoin="round"/>
<path d="M37 84H123.5" stroke="#EBFABE" stroke-width="8" stroke-linecap="round"/>
<rect x="124" width="80" height="80" rx="40" fill="#FFFAEB"/>
<path d="M164 59H146.652C146.214 59 145.794 58.8259 145.484 58.5161C145.174 58.2062 145 57.786 145 57.3478V40C145 34.9609 147.002 30.1282 150.565 26.565C154.128 23.0018 158.961 21 164 21C166.495 21 168.966 21.4914 171.271 22.4463C173.576 23.4011 175.671 24.8007 177.435 26.565C179.199 28.3293 180.599 30.4238 181.554 32.729C182.509 35.0342 183 37.5049 183 40C183 42.4951 182.509 44.9658 181.554 47.271C180.599 49.5762 179.199 51.6707 177.435 53.435C175.671 55.1993 173.576 56.5989 171.271 57.5537C168.966 58.5085 166.495 59 164 59Z" stroke="#FDB022" stroke-width="3.30435" stroke-linecap="round" stroke-linejoin="round"/>
<path d="M164.002 43.3042C165.37 43.3042 166.48 42.1946 166.48 40.8259C166.48 39.4572 165.37 38.3477 164.002 38.3477C162.633 38.3477 161.523 39.4572 161.523 40.8259C161.523 42.1946 162.633 43.3042 164.002 43.3042Z" fill="#FDB022"/>
<path d="M154.916 43.3042C156.284 43.3042 157.394 42.1946 157.394 40.8259C157.394 39.4572 156.284 38.3477 154.916 38.3477C153.547 38.3477 152.438 39.4572 152.438 40.8259C152.438 42.1946 153.547 43.3042 154.916 43.3042Z" fill="#FDB022"/>
<path d="M173.088 43.3042C174.456 43.3042 175.566 42.1946 175.566 40.8259C175.566 39.4572 174.456 38.3477 173.088 38.3477C171.719 38.3477 170.609 39.4572 170.609 40.8259C170.609 42.1946 171.719 43.3042 173.088 43.3042Z" fill="#FDB022"/>
</svg>
